<mxfile host="Electron" modified="2024-06-26T08:20:34.061Z" agent="Mozilla/5.0 (Macintosh; Intel Mac OS X 10_15_7) AppleWebKit/537.36 (KHTML, like Gecko) draw.io/24.2.5 Chrome/120.0.6099.109 Electron/28.1.0 Safari/537.36" etag="gTU4PZZkogZMUau55fMK" version="24.2.5" type="device">
  <diagram name="หน้า-1" id="osIcrFZ6m357A4d90hLU">
    <mxGraphModel dx="2419" dy="899" grid="1" gridSize="10" guides="1" tooltips="1" connect="1" arrows="1" fold="1" page="1" pageScale="1" pageWidth="827" pageHeight="1169" math="0" shadow="0">
      <root>
        <mxCell id="0" />
        <mxCell id="1" parent="0" />
        <mxCell id="H1RdKIz84YDGTWD-Xfeh-1" value="&lt;p style=&quot;margin:0px;margin-top:4px;text-align:center;&quot;&gt;&lt;i&gt;&amp;lt;&amp;lt;Interface&amp;gt;&amp;gt;&lt;/i&gt;&lt;br&gt;&lt;b&gt;Originator&lt;/b&gt;&lt;/p&gt;&lt;hr size=&quot;1&quot;&gt;&lt;p style=&quot;margin:0px;margin-left:4px;&quot;&gt;+ saveProgress() : Memento&lt;/p&gt;&lt;p style=&quot;margin:0px;margin-left:4px;&quot;&gt;+ restoreProgress(p : GameMemento)&amp;nbsp;&lt;br&gt;&lt;/p&gt;" style="verticalAlign=top;align=left;overflow=fill;fontSize=12;fontFamily=Helvetica;html=1;whiteSpace=wrap;movable=0;resizable=0;rotatable=0;deletable=0;editable=0;locked=1;connectable=0;" parent="1" vertex="1">
          <mxGeometry x="180" y="240" width="220" height="80" as="geometry" />
        </mxCell>
        <mxCell id="H1RdKIz84YDGTWD-Xfeh-3" value="&lt;p style=&quot;margin:0px;margin-top:4px;text-align:center;&quot;&gt;&lt;b&gt;Game&lt;/b&gt;&lt;/p&gt;&lt;hr size=&quot;1&quot;&gt;&lt;p style=&quot;margin:0px;margin-left:4px;&quot;&gt;- level : Int&lt;/p&gt;&lt;p style=&quot;margin:0px;margin-left:4px;&quot;&gt;- score : Int&lt;/p&gt;&lt;hr size=&quot;1&quot;&gt;&lt;p style=&quot;margin:0px;margin-left:4px;&quot;&gt;+ play(level, score)&lt;/p&gt;&lt;p style=&quot;margin:0px;margin-left:4px;&quot;&gt;+ show()&lt;/p&gt;&lt;p style=&quot;border-color: var(--border-color); margin: 0px 0px 0px 4px;&quot;&gt;+ saveProgress() : GameMemento&lt;/p&gt;&lt;p style=&quot;border-color: var(--border-color); margin: 0px 0px 0px 4px;&quot;&gt;+ restoreProgress(p : GameMemento&lt;span style=&quot;background-color: initial;&quot;&gt;)&amp;nbsp;&lt;/span&gt;&lt;/p&gt;" style="verticalAlign=top;align=left;overflow=fill;fontSize=12;fontFamily=Helvetica;html=1;whiteSpace=wrap;movable=0;resizable=0;rotatable=0;deletable=0;editable=0;locked=1;connectable=0;" parent="1" vertex="1">
          <mxGeometry x="180" y="420" width="220" height="140" as="geometry" />
        </mxCell>
        <mxCell id="H1RdKIz84YDGTWD-Xfeh-4" value="&lt;p style=&quot;margin:0px;margin-top:4px;text-align:center;&quot;&gt;&lt;b&gt;GameMemento&lt;/b&gt;&lt;/p&gt;&lt;hr size=&quot;1&quot;&gt;&lt;p style=&quot;border-color: var(--border-color); margin: 0px 0px 0px 4px;&quot;&gt;- level : Int&lt;/p&gt;&lt;p style=&quot;border-color: var(--border-color); margin: 0px 0px 0px 4px;&quot;&gt;- score : Int&lt;/p&gt;&lt;hr size=&quot;1&quot;&gt;&lt;p style=&quot;margin:0px;margin-left:4px;&quot;&gt;+ GameMemento(level, score)&lt;/p&gt;&lt;p style=&quot;margin:0px;margin-left:4px;&quot;&gt;+ getLevel() : Int&lt;/p&gt;&lt;p style=&quot;margin:0px;margin-left:4px;&quot;&gt;+ getScore() : Int&lt;/p&gt;&lt;p style=&quot;margin:0px;margin-left:4px;&quot;&gt;+ show()&lt;/p&gt;" style="verticalAlign=top;align=left;overflow=fill;fontSize=12;fontFamily=Helvetica;html=1;whiteSpace=wrap;movable=0;resizable=0;rotatable=0;deletable=0;editable=0;locked=1;connectable=0;" parent="1" vertex="1">
          <mxGeometry x="530" y="415" width="160" height="150" as="geometry" />
        </mxCell>
        <mxCell id="H1RdKIz84YDGTWD-Xfeh-5" value="&lt;p style=&quot;margin:0px;margin-top:4px;text-align:center;&quot;&gt;&lt;i&gt;&amp;lt;&amp;lt;Interface&amp;gt;&amp;gt;&lt;/i&gt;&lt;br&gt;&lt;b&gt;Memento&lt;/b&gt;&lt;/p&gt;&lt;hr size=&quot;1&quot;&gt;&lt;p style=&quot;margin:0px;margin-left:4px;&quot;&gt;+ show()&lt;/p&gt;" style="verticalAlign=top;align=left;overflow=fill;fontSize=12;fontFamily=Helvetica;html=1;whiteSpace=wrap;movable=0;resizable=0;rotatable=0;deletable=0;editable=0;locked=1;connectable=0;" parent="1" vertex="1">
          <mxGeometry x="515" y="245" width="190" height="70" as="geometry" />
        </mxCell>
        <mxCell id="H1RdKIz84YDGTWD-Xfeh-6" value="&lt;p style=&quot;margin:0px;margin-top:4px;text-align:center;&quot;&gt;&lt;b&gt;Caretaker&lt;/b&gt;&lt;/p&gt;&lt;hr size=&quot;1&quot;&gt;&lt;p style=&quot;border-color: var(--border-color); margin: 0px 0px 0px 4px;&quot;&gt;- history : Memento[]&lt;/p&gt;&lt;p style=&quot;border-color: var(--border-color); margin: 0px 0px 0px 4px;&quot;&gt;- originator : Originator&lt;/p&gt;&lt;hr size=&quot;1&quot;&gt;&lt;p style=&quot;margin:0px;margin-left:4px;&quot;&gt;&amp;nbsp;+ addHistory()&lt;/p&gt;&lt;p style=&quot;margin:0px;margin-left:4px;&quot;&gt;&amp;nbsp;+ undo()&lt;/p&gt;" style="verticalAlign=top;align=left;overflow=fill;fontSize=12;fontFamily=Helvetica;html=1;whiteSpace=wrap;movable=0;resizable=0;rotatable=0;deletable=0;editable=0;locked=1;connectable=0;" parent="1" vertex="1">
          <mxGeometry x="800" y="225" width="160" height="110" as="geometry" />
        </mxCell>
        <mxCell id="H1RdKIz84YDGTWD-Xfeh-7" value="" style="endArrow=block;dashed=1;endFill=0;endSize=12;html=1;rounded=0;entryX=0.5;entryY=1;entryDx=0;entryDy=0;exitX=0.5;exitY=0;exitDx=0;exitDy=0;" parent="1" source="H1RdKIz84YDGTWD-Xfeh-3" target="H1RdKIz84YDGTWD-Xfeh-1" edge="1">
          <mxGeometry width="160" relative="1" as="geometry">
            <mxPoint x="290" y="340" as="sourcePoint" />
            <mxPoint x="450" y="340" as="targetPoint" />
          </mxGeometry>
        </mxCell>
        <mxCell id="H1RdKIz84YDGTWD-Xfeh-8" value="" style="endArrow=open;endSize=12;dashed=1;html=1;rounded=0;entryX=0;entryY=0.5;entryDx=0;entryDy=0;exitX=1;exitY=0.5;exitDx=0;exitDy=0;" parent="1" source="H1RdKIz84YDGTWD-Xfeh-3" target="H1RdKIz84YDGTWD-Xfeh-4" edge="1">
          <mxGeometry width="160" relative="1" as="geometry">
            <mxPoint x="290" y="340" as="sourcePoint" />
            <mxPoint x="450" y="340" as="targetPoint" />
          </mxGeometry>
        </mxCell>
        <mxCell id="H1RdKIz84YDGTWD-Xfeh-9" value="" style="endArrow=block;dashed=1;endFill=0;endSize=12;html=1;rounded=0;entryX=0.5;entryY=1;entryDx=0;entryDy=0;exitX=0.5;exitY=0;exitDx=0;exitDy=0;" parent="1" source="H1RdKIz84YDGTWD-Xfeh-4" target="H1RdKIz84YDGTWD-Xfeh-5" edge="1">
          <mxGeometry width="160" relative="1" as="geometry">
            <mxPoint x="300" y="430" as="sourcePoint" />
            <mxPoint x="300" y="330" as="targetPoint" />
          </mxGeometry>
        </mxCell>
        <mxCell id="H1RdKIz84YDGTWD-Xfeh-10" value="" style="endArrow=diamondThin;endFill=0;endSize=24;html=1;rounded=0;entryX=0;entryY=0.5;entryDx=0;entryDy=0;exitX=1;exitY=0.5;exitDx=0;exitDy=0;startArrow=open;startFill=0;startSize=15;" parent="1" source="H1RdKIz84YDGTWD-Xfeh-5" target="H1RdKIz84YDGTWD-Xfeh-6" edge="1">
          <mxGeometry width="160" relative="1" as="geometry">
            <mxPoint x="800" y="340" as="sourcePoint" />
            <mxPoint x="960" y="340" as="targetPoint" />
          </mxGeometry>
        </mxCell>
        <mxCell id="H1RdKIz84YDGTWD-Xfeh-11" value="&lt;font color=&quot;#494949&quot; style=&quot;&quot;&gt;&lt;div style=&quot;&quot;&gt;&lt;div&gt;if history:&lt;/div&gt;&lt;div&gt;&amp;nbsp; &amp;nbsp; &amp;nbsp; &amp;nbsp; &amp;nbsp;memento = history.pop()&lt;/div&gt;&lt;div&gt;&amp;nbsp; &amp;nbsp; &amp;nbsp; &amp;nbsp; &amp;nbsp;originator.restoreProgress(memento)&lt;/div&gt;&lt;div&gt;else:&lt;/div&gt;&lt;div&gt;&lt;span style=&quot;white-space: pre;&quot;&gt;&#x9;&lt;/span&gt;print(&quot;Nothing to undo.&quot;)&lt;/div&gt;&lt;/div&gt;&lt;/font&gt;" style="shape=note;size=6;align=left;spacingLeft=10;html=1;whiteSpace=wrap;strokeWidth=1.5;strokeColor=#C3C3C3;gradientColor=none;fillColor=#EBEBEB;fontSize=12;movable=1;resizable=1;rotatable=1;deletable=1;editable=1;locked=0;connectable=1;" parent="1" vertex="1">
          <mxGeometry x="800" y="350" width="240" height="90" as="geometry" />
        </mxCell>
        <mxCell id="H1RdKIz84YDGTWD-Xfeh-12" style="rounded=0;orthogonalLoop=1;jettySize=auto;html=1;startArrow=oval;startFill=1;startSize=3;jumpStyle=none;endArrow=none;endFill=0;anchorPointDirection=0;bendable=0;editable=1;movable=1;resizable=1;rotatable=1;deletable=1;locked=0;connectable=1;backgroundOutline=0;snapToPoint=1;flowAnimation=0;strokeColor=#C3C3C3;dashed=1;shadow=0;strokeWidth=1.2;entryX=0;entryY=0;entryDx=62;entryDy=0;fontSize=12;entryPerimeter=0;" parent="1" target="H1RdKIz84YDGTWD-Xfeh-11" edge="1">
          <mxGeometry relative="1" as="geometry">
            <mxPoint x="860" y="320" as="sourcePoint" />
            <mxPoint x="920" y="380" as="targetPoint" />
          </mxGeometry>
        </mxCell>
        <mxCell id="H1RdKIz84YDGTWD-Xfeh-13" value="&lt;font color=&quot;#494949&quot; style=&quot;&quot;&gt;&lt;div style=&quot;&quot;&gt;&lt;div&gt;gp = p&lt;/div&gt;&lt;div&gt;level = gp.getLevel()&lt;/div&gt;&lt;div&gt;score = gp.getScore()&lt;/div&gt;&lt;div&gt;print(f&#39;Restore Progress at level {gp.getLevel()} score : {gp.getScore()}&#39;)&lt;/div&gt;&lt;/div&gt;&lt;/font&gt;" style="shape=note;size=6;align=left;spacingLeft=10;html=1;whiteSpace=wrap;strokeWidth=1.5;strokeColor=#C3C3C3;gradientColor=none;fillColor=#EBEBEB;fontSize=12;movable=1;resizable=1;rotatable=1;deletable=1;editable=1;locked=0;connectable=1;" parent="1" vertex="1">
          <mxGeometry x="90" y="585" width="400" height="75" as="geometry" />
        </mxCell>
        <mxCell id="H1RdKIz84YDGTWD-Xfeh-14" style="rounded=0;orthogonalLoop=1;jettySize=auto;html=1;startArrow=oval;startFill=1;startSize=3;jumpStyle=none;endArrow=none;endFill=0;anchorPointDirection=0;bendable=0;editable=1;movable=1;resizable=1;rotatable=1;deletable=1;locked=0;connectable=1;backgroundOutline=0;snapToPoint=1;flowAnimation=0;strokeColor=#C3C3C3;dashed=1;shadow=0;strokeWidth=1.2;entryX=0;entryY=0;entryDx=62;entryDy=0;fontSize=12;entryPerimeter=0;" parent="1" target="H1RdKIz84YDGTWD-Xfeh-13" edge="1">
          <mxGeometry relative="1" as="geometry">
            <mxPoint x="190" y="550" as="sourcePoint" />
            <mxPoint x="250" y="610" as="targetPoint" />
          </mxGeometry>
        </mxCell>
        <mxCell id="H1RdKIz84YDGTWD-Xfeh-15" value="&lt;font color=&quot;#494949&quot; style=&quot;&quot;&gt;&lt;div style=&quot;&quot;&gt;&lt;div&gt;print(f&#39;Save Progress&#39;)&lt;/div&gt;&lt;div&gt;return GameMemento(level, score)&lt;/div&gt;&lt;/div&gt;&lt;/font&gt;" style="shape=note;size=6;align=left;spacingLeft=10;html=1;whiteSpace=wrap;strokeWidth=1.5;strokeColor=#C3C3C3;gradientColor=none;fillColor=#EBEBEB;fontSize=12;movable=1;resizable=1;rotatable=1;deletable=1;editable=1;locked=0;connectable=1;" parent="1" vertex="1">
          <mxGeometry x="-70" y="470" width="190" height="60" as="geometry" />
        </mxCell>
        <mxCell id="H1RdKIz84YDGTWD-Xfeh-16" style="rounded=0;orthogonalLoop=1;jettySize=auto;html=1;startArrow=oval;startFill=1;startSize=3;jumpStyle=none;endArrow=none;endFill=0;anchorPointDirection=0;bendable=0;editable=1;movable=1;resizable=1;rotatable=1;deletable=1;locked=0;connectable=1;backgroundOutline=0;snapToPoint=1;flowAnimation=0;strokeColor=#C3C3C3;dashed=1;shadow=0;strokeWidth=1.2;entryX=1.002;entryY=0.88;entryDx=0;entryDy=0;fontSize=12;entryPerimeter=0;" parent="1" target="H1RdKIz84YDGTWD-Xfeh-15" edge="1">
          <mxGeometry relative="1" as="geometry">
            <mxPoint x="180" y="530" as="sourcePoint" />
            <mxPoint x="-120" y="495" as="targetPoint" />
          </mxGeometry>
        </mxCell>
        <mxCell id="h5vZ8w82yC6uJhp7Sutk-1" value="&lt;font style=&quot;font-size: 36px;&quot;&gt;Memento&lt;/font&gt;" style="text;html=1;align=center;verticalAlign=middle;whiteSpace=wrap;rounded=0;" vertex="1" parent="1">
          <mxGeometry x="-30" y="170" width="60" height="30" as="geometry" />
        </mxCell>
      </root>
    </mxGraphModel>
  </diagram>
</mxfile>
